Coordinates
version=1
nRows=14
nColumns=36
inDegrees=yes

Units are S.I. units (second, meters, Newtons, ...)
If the header above contains a line with 'inDegrees', this indicates whether rotational values are in degrees (yes) or radians (no).

endheader
time	pelvis_tilt	pelvis_list	pelvis_rotation	pelvis_tx	pelvis_ty	pelvis_tz	hip_flexion_r	hip_adduction_r	hip_rotation_r	knee_angle_r	knee_angle_r_beta	ankle_angle_r	subtalar_angle_r	mtp_angle_r	hip_flexion_l	hip_adduction_l	hip_rotation_l	knee_angle_l	knee_angle_l_beta	ankle_angle_l	subtalar_angle_l	mtp_angle_l	lumbar_extension	lumbar_bending	lumbar_rotation	arm_flex_r	arm_add_r	arm_rot_r	elbow_flex_r	pro_sup_r	arm_flex_l	arm_add_l	arm_rot_l	elbow_flex_l	pro_sup_l
      0.00000000	      3.22954181	     -3.41114087	     -2.04114074	     -0.92668087	      1.26017101	     -0.07822795	     -3.91719985	      1.99152800	      1.96178354	      5.62742772	      0.09821714	      3.49358247	     -7.74905957	     -5.59523929	     -6.08791613	     -4.71630920	      0.70596731	      3.79632831	      0.06625843	      9.47228089	     -2.99714590	     -5.59523929	    -15.60857510	      2.79456135	     -1.10534437	      9.78136570	     -5.25655463	     28.14311095	     21.32917454	     72.23027218	      7.08730904	     -6.34124508	     26.35667403	     22.70680607	     63.76696685
      0.00416670	      1.66391058	     -3.07912387	     -1.63737986	     -0.92613703	      1.25891372	     -0.07838728	     -2.48036455	      1.96050983	      2.58398217	      5.49507829	      0.09590721	      4.78043601	     -5.75075352	     -5.76896744	     -4.70013683	     -4.10699886	      1.90980335	      2.93650998	      0.05125177	      8.46137691	     -2.39131294	     -5.76896744	    -13.55272716	      2.24741635	     -0.95631695	      9.22367559	     -4.82452505	     27.31574922	     21.06841802	     71.52664133	      7.22952533	     -5.96134409	     25.88556157	     22.37083333	     63.60960302
      0.00833330	      0.85826820	     -2.45518794	     -1.74343914	     -0.92504292	      1.25764962	     -0.07751446	     -2.08652985	      1.44442309	      1.65675956	      4.46550177	      0.07793771	      4.98199964	     -4.77608020	     -5.97975955	     -4.11179218	     -3.46892755	      1.65557360	      2.37361584	      0.04142741	      7.86414763	     -2.25494695	     -5.97975955	    -12.64345748	      1.18436613	     -0.75849420	      8.93691717	     -4.18245570	     25.67182562	     20.92684284	     71.08863369	      7.53340587	     -6.11664380	     25.37781410	     21.92976167	     63.74620350
      0.01250000	      1.24409444	     -2.20270713	     -1.68644067	     -0.92411591	      1.26105841	     -0.07808517	     -2.92603291	      1.09951280	      1.16485692	      3.60083231	      0.06284638	      5.09281433	     -3.63493082	     -6.96463859	     -5.03280481	     -3.11578330	      1.54225651	      1.37107409	      0.02392976	      7.21981611	     -2.29106688	     -6.96463859	    -13.20611790	      0.72937910	     -0.14961956	      7.94627010	     -3.32307906	     15.59790427	     22.13890302	     83.56374760	      7.84931833	     -5.93342004	     22.45079320	     21.67199272	     71.90131454
      0.01666670	      1.36038146	     -2.10553954	     -1.58775241	     -0.92495105	      1.26237566	     -0.07799912	     -3.37180016	      1.00620734	      1.03404530	      2.92830931	      0.05110864	      4.83391481	     -3.31900185	     -7.06274507	     -5.32747203	     -2.94625738	      1.53029222	      0.95905595	      0.01673868	      6.82152013	     -2.48867578	     -7.06274507	    -13.58603073	      0.58519769	     -0.05747862	      7.75105138	     -3.08308058	     14.50791608	     22.68120905	     82.10485991	      8.06915699	     -5.88455830	     21.53774770	     21.84229330	     71.26103859
      0.02083330	      1.56235704	     -2.07588872	     -1.45427082	     -0.92513857	      1.25997112	     -0.07773547	     -3.80738984	      1.03109901	      1.10288569	      2.58996120	      0.04520335	      4.60168361	     -3.28128656	     -7.41817739	     -5.51936876	     -2.90759533	      1.80391560	      0.78391054	      0.01368182	      6.74624710	     -2.36077345	     -7.41817739	    -13.96242995	      0.50783574	      0.03674250	      7.58151135	     -2.85810026	     12.41726628	     23.24238202	     85.00384286	      8.21560222	     -5.82020826	     19.72567232	     22.12276010	     74.29419234
      0.02500000	      1.81691882	     -2.02342504	     -1.40752748	     -0.92534418	      1.26270764	     -0.07760188	     -4.20928699	      0.98648085	      1.18899190	      2.39898321	      0.04187016	      4.25023978	     -3.42477065	     -7.47396255	     -5.77045916	     -2.83982989	      1.79733516	      0.68367898	      0.01193245	      6.41322077	     -2.23341613	     -7.47396255	    -14.41105582	      0.42458832	      0.07356177	      7.63144089	     -2.99331542	     14.39686066	     23.74616482	     75.73193511	      8.35758579	     -5.85683143	     19.99532284	     22.56899512	     68.29487656
      0.02916670	      1.80156530	     -1.99496911	     -1.26743891	     -0.92431504	      1.26165250	     -0.07813328	     -4.33848214	      0.98067785	      0.92603339	      2.21740123	      0.03870095	      4.22293189	     -2.89301055	     -7.48171291	     -5.75658543	     -2.82062945	      2.35306473	      0.65155971	      0.01137186	      6.06698301	     -2.56464072	     -7.48171291	    -14.37619580	      0.42257508	     -0.07061149	      7.63105567	     -3.00077750	     15.00933425	     23.65689775	     74.31943206	      8.43463761	     -5.87445585	     20.06838933	     22.60647421	     67.60466582
      0.03333330	      1.93823323	     -1.99857025	     -1.29417047	     -0.92337777	      1.26403482	     -0.07809869	     -4.66619001	      0.99347219	      1.13482478	      1.97740340	      0.03451220	      3.65422766	     -3.44899523	     -7.49816623	     -5.95858793	     -2.82833695	      2.32037113	      0.61362136	      0.01070971	      5.94848053	     -2.36458561	     -7.49816623	    -14.52264641	      0.43851879	      0.04202543	      7.63478482	     -3.09336132	     14.32421264	     23.65958725	     83.68012953	      8.40769587	     -5.74866400	     19.27291185	     22.60042389	     75.10768739
      0.03750000	      2.11795938	     -2.04236228	     -1.27662901	     -0.92421825	      1.26433278	     -0.07774381	     -4.96956043	      1.05602755	      1.10093559	      1.77453511	      0.03097148	      3.40311185	     -3.59280177	     -7.49911589	     -6.18599634	     -2.89397284	      2.48827479	      0.58364946	      0.01018660	      5.88991530	     -2.27864106	     -7.49911589	    -14.76621474	      0.48779239	      0.05326831	      7.76090728	     -3.34022398	     16.39883745	     23.78057318	     78.54532881	      8.45671880	     -5.75868794	     20.06399895	     22.83231163	     71.38855544
      0.04166670	      2.27747658	     -2.06970578	     -1.21269152	     -0.92302120	      1.26546919	     -0.07815229	     -5.29111761	      1.10730131	      1.13373003	      1.58424061	      0.02765021	      3.09530439	     -3.75692057	     -7.49980230	     -6.38327465	     -2.93527313	      2.56999482	      0.54517522	      0.00951510	      5.80583514	     -2.19481663	     -7.49980230	    -14.87925424	      0.52595330	     -0.05534649	      7.94252610	     -3.55142039	     18.65227649	     23.71151168	     73.97424538	      8.45281969	     -5.86465470	     21.32426534	     22.90202036	     68.32430357
      0.04583330	      1.62529336	     -2.08535790	     -1.26589640	     -0.92318530	      1.26220858	     -0.07781696	     -4.63805658	      1.14114833	      0.89608568	      1.50300009	      0.02623230	      3.00390977	     -3.59869575	     -7.49984004	     -5.70045978	     -2.98141000	      2.41143117	      0.54038253	      0.00943145	      5.68288295	     -2.15815767	     -7.49984004	    -13.97284387	      0.55616890	      0.04151147	      7.61960268	     -3.55319348	     18.32852698	     23.86089427	     73.04844402	      8.10824281	     -5.82979304	     20.98398412	     23.15855629	     67.75762819
      0.05000000	      2.37432392	     -2.13232270	     -1.13366070	     -0.92484944	      1.26394682	     -0.07777240	     -5.52045212	      1.19186428	      0.90584954	      1.33402022	      0.02328305	      2.97981616	     -3.54658381	     -7.49984459	     -6.49953436	     -3.03909734	      2.68881770	      0.51572319	      0.00900107	      5.79923198	     -2.12588393	     -7.49984459	    -15.10646902	      0.62077946	     -0.05686661	      8.04229507	     -3.55983199	     18.51751164	     23.45656104	     74.05941178	      8.62081632	     -5.75655407	     21.12966362	     22.76298946	     68.45217612
      0.05416670	      2.30555434	     -2.17975949	     -1.11519000	     -0.92453043	      1.26073308	     -0.07739486	     -5.46234541	      1.26922134	      0.85254688	      1.26509090	      0.02208000	      2.98002690	     -3.54052255	     -7.49990870	     -6.44511382	     -3.12703368	      2.66670448	      0.51235339	      0.00894225	      5.97264108	     -1.95390382	     -7.49990870	    -15.05861583	      0.67311056	      0.00729454	      7.88422186	     -3.40904051	     16.05796429	     23.44441976	     84.30620860	      8.60763446	     -5.71034065	     19.65787297	     22.79701035	     76.20933296
